<mxfile host="Electron" modified="2024-07-23T15:05:17.660Z" agent="Mozilla/5.0 (Windows NT 10.0; Win64; x64) AppleWebKit/537.36 (KHTML, like Gecko) draw.io/22.0.3 Chrome/114.0.5735.289 Electron/25.8.4 Safari/537.36" etag="xIjDe0btCqbYt09UPqWE" version="22.0.3" type="device">
  <diagram name="Page-1" id="19VKJvik9FJlbEbxQLB3">
    <mxGraphModel dx="748" dy="639" grid="1" gridSize="10" guides="1" tooltips="1" connect="1" arrows="1" fold="1" page="1" pageScale="1" pageWidth="500" pageHeight="420" math="0" shadow="0">
      <root>
        <mxCell id="0" />
        <mxCell id="1" parent="0" />
        <mxCell id="bYP6Jprx8G24OzpJP_W8-1" value="" style="ellipse;whiteSpace=wrap;html=1;aspect=fixed;" vertex="1" parent="1">
          <mxGeometry x="20" y="20" width="50" height="50" as="geometry" />
        </mxCell>
        <mxCell id="bYP6Jprx8G24OzpJP_W8-2" value="" style="ellipse;whiteSpace=wrap;html=1;aspect=fixed;fillColor=#f5f5f5;fontColor=#333333;strokeColor=#666666;" vertex="1" parent="1">
          <mxGeometry x="80" y="20" width="50" height="50" as="geometry" />
        </mxCell>
        <mxCell id="bYP6Jprx8G24OzpJP_W8-3" value="" style="ellipse;whiteSpace=wrap;html=1;aspect=fixed;fillColor=#dae8fc;strokeColor=#6c8ebf;" vertex="1" parent="1">
          <mxGeometry x="140" y="20" width="50" height="50" as="geometry" />
        </mxCell>
        <mxCell id="bYP6Jprx8G24OzpJP_W8-4" value="" style="ellipse;whiteSpace=wrap;html=1;aspect=fixed;fillColor=#d5e8d4;strokeColor=#82b366;" vertex="1" parent="1">
          <mxGeometry x="200" y="20" width="50" height="50" as="geometry" />
        </mxCell>
        <mxCell id="bYP6Jprx8G24OzpJP_W8-5" value="" style="ellipse;whiteSpace=wrap;html=1;aspect=fixed;fillColor=#ffe6cc;strokeColor=#d79b00;" vertex="1" parent="1">
          <mxGeometry x="20" y="80" width="50" height="50" as="geometry" />
        </mxCell>
        <mxCell id="bYP6Jprx8G24OzpJP_W8-6" value="" style="ellipse;whiteSpace=wrap;html=1;aspect=fixed;" vertex="1" parent="1">
          <mxGeometry x="80" y="80" width="50" height="50" as="geometry" />
        </mxCell>
        <mxCell id="bYP6Jprx8G24OzpJP_W8-7" value="" style="ellipse;whiteSpace=wrap;html=1;aspect=fixed;fillColor=#fff2cc;strokeColor=#d6b656;" vertex="1" parent="1">
          <mxGeometry x="80" y="80" width="50" height="50" as="geometry" />
        </mxCell>
        <mxCell id="bYP6Jprx8G24OzpJP_W8-8" value="" style="ellipse;whiteSpace=wrap;html=1;aspect=fixed;fillColor=#f8cecc;strokeColor=#b85450;" vertex="1" parent="1">
          <mxGeometry x="140" y="80" width="50" height="50" as="geometry" />
        </mxCell>
        <mxCell id="bYP6Jprx8G24OzpJP_W8-9" value="" style="ellipse;whiteSpace=wrap;html=1;aspect=fixed;fillColor=#e1d5e7;strokeColor=#9673a6;" vertex="1" parent="1">
          <mxGeometry x="200" y="80" width="50" height="50" as="geometry" />
        </mxCell>
        <mxCell id="bYP6Jprx8G24OzpJP_W8-10" value="" style="ellipse;whiteSpace=wrap;html=1;aspect=fixed;fillColor=#000000;" vertex="1" parent="1">
          <mxGeometry x="260" y="20" width="50" height="50" as="geometry" />
        </mxCell>
        <mxCell id="bYP6Jprx8G24OzpJP_W8-11" value="ABC" style="text;strokeColor=none;align=center;fillColor=none;html=1;verticalAlign=middle;whiteSpace=wrap;rounded=0;" vertex="1" parent="1">
          <mxGeometry x="260" y="90" width="60" height="30" as="geometry" />
        </mxCell>
        <mxCell id="bYP6Jprx8G24OzpJP_W8-12" value="" style="shape=flexArrow;endArrow=classic;html=1;rounded=0;fillColor=none;strokeColor=#d79b00;" edge="1" parent="1">
          <mxGeometry width="50" height="50" relative="1" as="geometry">
            <mxPoint x="20" y="160" as="sourcePoint" />
            <mxPoint x="70" y="160" as="targetPoint" />
          </mxGeometry>
        </mxCell>
        <mxCell id="bYP6Jprx8G24OzpJP_W8-13" value="" style="shape=flexArrow;endArrow=classic;html=1;rounded=0;fillColor=none;strokeColor=#6c8ebf;" edge="1" parent="1">
          <mxGeometry width="50" height="50" relative="1" as="geometry">
            <mxPoint x="80" y="160" as="sourcePoint" />
            <mxPoint x="130" y="160" as="targetPoint" />
          </mxGeometry>
        </mxCell>
        <mxCell id="bYP6Jprx8G24OzpJP_W8-15" value="ABC" style="text;strokeColor=none;align=center;fillColor=none;html=1;verticalAlign=middle;whiteSpace=wrap;rounded=0;fontColor=#7EA6E0;" vertex="1" parent="1">
          <mxGeometry x="260" y="120" width="60" height="30" as="geometry" />
        </mxCell>
        <mxCell id="bYP6Jprx8G24OzpJP_W8-16" value="ABC" style="text;strokeColor=none;align=center;fillColor=none;html=1;verticalAlign=middle;whiteSpace=wrap;rounded=0;fontColor=#97D077;" vertex="1" parent="1">
          <mxGeometry x="260" y="150" width="60" height="30" as="geometry" />
        </mxCell>
      </root>
    </mxGraphModel>
  </diagram>
</mxfile>
